<?xml version="1.0" standalone="no"?><!DOCTYPE svg PUBLIC "-//W3C//DTD SVG 1.1//EN" "http://www.w3.org/Graphics/SVG/1.1/DTD/svg11.dtd"><svg t="1589707697051" class="icon" viewBox="0 0 1024 1024" version="1.1" xmlns="http://www.w3.org/2000/svg" p-id="18197" xmlns:xlink="http://www.w3.org/1999/xlink" width="200" height="200"><defs><style type="text/css"></style></defs><path d="M511.872915 1023.99991a511.856955 511.856955 0 1 1 511.855955-511.856955A511.549955 511.549955 0 0 1 511.872915 1023.99991z m0-990.954913a479.097958 479.097958 0 1 0 479.097958 479.097958A479.691958 479.691958 0 0 0 511.872915 33.044997z m-77.699993 774.132932V511.856955h-60.009995v-97.949991h60.009995v-59.251995c0-79.849993 23.872998-137.442988 111.35999-137.442988h104.049991v97.702991H576.325909c-36.689997 0-45.043996 24.384998-45.043996 49.935996v49.138996h112.89499l-15.395998 97.866991h-97.498992V807.279929h-97.109991z" p-id="18198"></path></svg>