<?xml version="1.0" standalone="no"?><!DOCTYPE svg PUBLIC "-//W3C//DTD SVG 1.1//EN" "http://www.w3.org/Graphics/SVG/1.1/DTD/svg11.dtd"><svg t="1589707912324" class="icon" viewBox="0 0 1024 1024" version="1.1" xmlns="http://www.w3.org/2000/svg" p-id="23593" xmlns:xlink="http://www.w3.org/1999/xlink" width="200" height="200"><defs><style type="text/css"></style></defs><path d="M960 128c0-35.2-28.8-64-64-64H128c-35.2 0-64 28.8-64 64v768c0 35.2 28.8 64 64 64h768c35.2 0 64-28.8 64-64V128zM608 896v-288h112c19.2 0 32-12.8 32-32s-12.8-32-32-32H608v-131.2c0-32 6.4-54.4 22.4-67.2 12.8-9.6 35.2-22.4 67.2-22.4H768c19.2 0 32-12.8 32-32s-12.8-32-32-32h-70.4c-41.6 0-83.2 16-112 41.6-28.8 25.6-41.6 64-41.6 115.2v128h-112c-19.2 0-32 12.8-32 32s12.8 32 32 32H544v288H128V128h768v768h-288z" p-id="23594"></path></svg>