<?xml version="1.0" standalone="no"?><!DOCTYPE svg PUBLIC "-//W3C//DTD SVG 1.1//EN" "http://www.w3.org/Graphics/SVG/1.1/DTD/svg11.dtd"><svg t="1589703718131" class="icon" viewBox="0 0 1024 1024" version="1.1" xmlns="http://www.w3.org/2000/svg" p-id="17458" xmlns:xlink="http://www.w3.org/1999/xlink" width="200" height="200"><defs><style type="text/css"></style></defs><path d="M716.1856 744.2432h-72.4992l-78.0288-131.4816c-15.36-26.4192-30.72-44.8512-43.008-54.6816-12.288-9.8304-29.4912-14.1312-47.3088-14.1312h-44.8512v199.68h-61.44V268.6976H514.048c46.08 0 82.3296 11.0592 108.7488 33.792 26.4192 22.1184 39.3216 52.8384 39.3216 93.3888 0 65.7408-35.0208 108.7488-106.2912 128.4096v1.2288c12.288 5.5296 23.9616 14.1312 33.792 23.9616s22.1184 27.648 36.2496 52.8384l90.3168 141.9264zM431.104 322.7648v167.7312h72.4992c27.648 0 50.3808-8.6016 68.1984-25.1904 18.432-16.5888 26.4192-37.4784 26.4192-64.512 0-25.1904-8.6016-44.8512-23.9616-58.368-15.36-14.1312-39.3216-20.8896-70.0416-20.8896h-73.728v1.2288h0.6144z" fill="" p-id="17459"></path><path d="M513.4336 58.5728c-254.3616 0-460.8 206.4384-460.8 460.8s206.4384 460.8 460.8 460.8 460.8-206.4384 460.8-460.8-206.4384-460.8-460.8-460.8z m0 866.9184C289.792 925.4912 108.544 744.2432 108.544 520.6016S289.792 115.712 513.4336 115.712 918.3232 296.96 918.3232 520.6016s-181.248 404.8896-404.8896 404.8896z" fill="" p-id="17460"></path></svg>