<?xml version="1.0" standalone="no"?><!DOCTYPE svg PUBLIC "-//W3C//DTD SVG 1.1//EN" "http://www.w3.org/Graphics/SVG/1.1/DTD/svg11.dtd"><svg t="1589683927593" class="icon" viewBox="0 0 1024 1024" version="1.1" xmlns="http://www.w3.org/2000/svg" p-id="833" xmlns:xlink="http://www.w3.org/1999/xlink" width="200" height="200"><defs><style type="text/css"></style></defs><path d="M19.2 601.6C12.8 569.6 12.8 544 12.8 512 12.8 243.2 236.8 19.2 512 19.2c172.8 0 339.2 89.6 428.8 243.2l-44.8 25.6c-76.8-128-224-211.2-384-211.2-243.2 0-441.6 192-441.6 435.2 0 25.6 0 51.2 6.4 76.8l-57.6 12.8zM512 1004.8c-179.2 0-345.6-96-435.2-249.6l51.2-32c76.8 134.4 224 224 384 224 243.2 0 441.6-192 441.6-435.2 0-25.6 0-51.2-6.4-70.4l57.6-12.8c6.4 25.6 6.4 51.2 6.4 83.2 0 268.8-224 492.8-499.2 492.8z" p-id="834"></path><path d="M915.2 300.8h-185.6c-12.8 0-32-12.8-32-32 0-12.8 12.8-32 32-32h153.6V96c0-12.8 12.8-32 32-32 12.8 0 32 12.8 32 32v179.2c0 12.8-12.8 25.6-32 25.6zM102.4 947.2c-12.8 0-32-12.8-32-32v-179.2c0-12.8 12.8-32 32-32h185.6c12.8 0 32 12.8 32 32s-19.2 32-38.4 32H128v147.2c0 19.2-12.8 32-25.6 32z" p-id="835"></path></svg>