<?xml version="1.0" standalone="no"?><!DOCTYPE svg PUBLIC "-//W3C//DTD SVG 1.1//EN" "http://www.w3.org/Graphics/SVG/1.1/DTD/svg11.dtd"><svg t="1589683932367" class="icon" viewBox="0 0 1024 1024" version="1.1" xmlns="http://www.w3.org/2000/svg" p-id="968" xmlns:xlink="http://www.w3.org/1999/xlink" width="200" height="200"><defs><style type="text/css"></style></defs><path d="M311.5 342l-3.5-86 58 74.613 116.707 63.494 9.026-126.237C492.493 257.238 501.34 249 512 249s19.507 8.238 20.267 18.87l9.082 127.022 118.151-64.28 58-74.612-3.5 86-109.265 56.54c-24.685 2.82-49.532 5.045-73.735 5.045-37.463 0-78.727-5.33-119.708-9.947L311.5 342z" fill="#68C205" p-id="969"></path><path d="M512 894.585c-194.404 0-352-106.362-352-343.459 0-237.096 217.437-147.541 371-147.541s333-89.555 333 147.541c0 237.097-157.596 343.459-352 343.459z m182-442.873c14.95 0.332 30.04 5.977 43.778 17.452 36.536 30.517 51.37 92.113 37.513 145.836 3.444-5.129 6.556-10.834 9.26-17.09 20.786-48.087 9.593-110.492-25-139.386-20.62-17.222-44.899-18.651-65.551-6.812z" fill="#FF3D00" p-id="970"></path><path d="M511 414.56c-30.345 0.67-60.972 12.059-88.857 35.21-74.157 61.568-104.264 185.842-76.14 294.23-6.99-10.347-13.307-21.858-18.796-34.48-42.189-97.017-19.47-222.923 50.745-281.217 41.851-34.747 91.13-37.63 133.048-13.744z m30-1c41.918-23.887 91.197-21.004 133.048 13.743 70.215 58.294 92.934 184.2 50.745 281.218-5.489 12.621-11.805 24.132-18.796 34.479 28.124-108.388-1.983-232.662-76.14-294.23-27.885-23.151-58.512-34.54-88.857-35.21z" fill="#E03200" p-id="971"></path><path d="M273.5 829.162a292.676 292.676 0 0 1-14.865-12.272C190.04 756.34 153 666.272 153 550.626c0-88.065 29.359-138.532 86.081-159.583 23.658-8.78 51.713-12.397 85.914-12.016 15.494 0.173 30.403 0.99 49.49 2.716l-63.932-33.082a7.5 7.5 0 0 1-4.047-6.356l-3.5-86c-0.297-7.29 8.937-10.669 13.415-4.908l57.04 73.376 102.69 55.869 8.1-113.307C485.293 252.778 497.407 241.5 512 241.5s26.708 11.278 27.748 25.835l8.25 115.401 106.542-57.963 57.039-73.376c4.478-5.761 13.712-2.383 13.415 4.908l-3.5 86a7.5 7.5 0 0 1-4.047 6.356l-71.202 36.844c36.644-4.454 52.94-5.934 73.441-6.41 31.125-0.72 56.15 2.596 77.174 11.225C846.868 410.844 872 461.074 872 550.626c0 115.646-37.04 205.715-105.635 266.264-4.895 4.32-9.94 8.479-15.128 12.474C801.48 843.23 832 861.49 832 881.5c0 43.354-143.269 78.5-320 78.5s-320-35.146-320-78.5c0-20.108 30.818-38.45 81.5-52.338z m244.477-571.185c-6.009 2.925-10.277 8.884-10.788 15.934l-8.62 118.927 3.393 1.846c7.914 0.482 15.173 0.751 22.508 0.853l9.054-4.926-8.737-122.206a12.816 12.816 0 0 0-6.81-10.428z m-186.71 36.96l1.698 40.376 100.326 52.729c11.888 1.352 22.208 2.488 31.387 3.434l-99.762-54.275a7.5 7.5 0 0 1-2.337-1.985l-31.311-40.28zM520.663 878h82.763c59.974-11.94 112.107-36.248 153.013-72.356C821.66 748.074 857 662.138 857 550.626c0-84.041-22.269-128.55-65.835-146.43-18.819-7.723-41.899-10.782-71.131-10.104-22.41 0.519-39.907 2.304-86.935 8.143-19.434 2.413-30.062 3.666-41.96 4.877-22.518 2.292-41.635 3.473-59.639 3.473-27.899 0-51.266-2.059-106.05-8.341l-5.991-0.687c-25.314-2.893-44.008-4.822-60.037-6.007C318.459 422.51 292 469.664 292 550.71 292 734.884 387.092 840.172 520.662 878z m82.942-487.319l103.08-53.34 2.37-58.256-43.633 56.13a7.5 7.5 0 0 1-2.337 1.986l-105.918 57.624c10.08-0.567 20.79-1.448 32.454-2.635 4.645-0.473 9.1-0.953 13.984-1.509z" fill="#162B3F" p-id="972"></path></svg>