<?xml version="1.0" standalone="no"?><!DOCTYPE svg PUBLIC "-//W3C//DTD SVG 1.1//EN" "http://www.w3.org/Graphics/SVG/1.1/DTD/svg11.dtd"><svg t="1589702385703" class="icon" viewBox="0 0 1024 1024" version="1.1" xmlns="http://www.w3.org/2000/svg" p-id="5225" xmlns:xlink="http://www.w3.org/1999/xlink" width="200" height="200"><defs><style type="text/css"></style></defs><path d="M604.48 213.44L672 298.56l-113.92-11.2L512 384l-46.08-96.64-113.92 11.2 67.52-85.12-17.28-41.28L384 128l128 32 128-32-18.24 44.16z" fill="#E0EBFE" p-id="5226"></path><path d="M664.96 151.392l4.608-11.2a32 32 0 0 0-37.344-43.232L544 119.04V32a32 32 0 0 0-64 0v87.04l-88.224-22.08a32.064 32.064 0 0 0-37.344 43.264l4.672 11.296C164.96 212.16 32 382.304 32 576c0 247.04 215.328 448 480 448s480-200.96 480-448c0-193.664-132.896-363.776-327.04-424.608z m-215.936 49.696l-11.136-26.624 66.336 16.576c5.12 1.28 10.432 1.28 15.552 0l66.336-16.576-11.136 26.624c-4.48 10.752-2.816 23.104 4.416 32.256l20.64 25.984-38.816-3.84a32.096 32.096 0 0 0-32 18.112L512 309.632l-17.184-36.032a32 32 0 0 0-32-18.08l-38.848 3.808 20.64-26.016c7.232-9.12 8.928-21.472 4.416-32.224zM512 960C282.624 960 96 787.744 96 576c0-165.952 115.392-311.904 283.712-363.84l-52.8 66.528a32 32 0 0 0 28.224 51.712l91.552-8.992 36.416 76.352a32 32 0 0 0 57.792 0l36.416-76.352 91.552 8.992a32 32 0 0 0 28.192-51.744L644.16 211.968C812.576 264.032 928 410.016 928 576c0 211.744-186.624 384-416 384z" fill="#5465CF" p-id="5227"></path><path d="M176.96 435.744a15.936 15.936 0 0 0 21.984-5.344c9.056-14.912 18.432-27.936 28.576-39.84a16 16 0 0 0-24.32-20.8 335.68 335.68 0 0 0-31.584 44 16 16 0 0 0 5.344 21.984zM214.24 734.304a280.256 280.256 0 0 1-29.184-49.856A263.904 263.904 0 0 1 160 570.88a275.2 275.2 0 0 1 4.512-49.792c2.944-15.648 7.456-31.392 13.312-46.88a16 16 0 0 0-29.888-11.392 310.72 310.72 0 0 0-14.88 52.384A306.688 306.688 0 0 0 128 570.848c0 22.56 2.4 44.736 7.104 65.92a300.16 300.16 0 0 0 20.864 60.992c8.32 18.56 19.2 37.184 32.384 55.36 12.448 17.024 26.624 32.768 43.392 48.128a16 16 0 1 0 21.632-23.616 293.376 293.376 0 0 1-39.136-43.328z" fill="#5465CF" p-id="5228"></path></svg>