<?xml version="1.0" standalone="no"?><!DOCTYPE svg PUBLIC "-//W3C//DTD SVG 1.1//EN" "http://www.w3.org/Graphics/SVG/1.1/DTD/svg11.dtd"><svg t="1589707741780" class="icon" viewBox="0 0 1024 1024" version="1.1" xmlns="http://www.w3.org/2000/svg" p-id="19534" xmlns:xlink="http://www.w3.org/1999/xlink" width="200" height="200"><defs><style type="text/css"></style></defs><path d="M722.432 358.4c-16.384 10.24-34.304 16.384-52.736 20.48-14.336-16.384-36.352-26.112-60.928-26.112-46.592 0-82.944 36.352-82.944 80.896 0 6.144 0 12.288 2.048 18.432-68.608-4.096-129.536-36.352-172.032-84.992-8.192 12.288-12.288 26.112-12.288 40.448 0 28.16 14.336 52.736 36.352 68.608-14.336 0-26.112-4.096-38.4-10.24v2.048c0 40.448 28.16 72.704 66.56 80.896-6.144 2.048-14.336 2.048-22.016 2.048-6.144 0-10.24 0-16.384-2.048 10.24 32.256 40.448 56.832 76.8 56.832-28.16 22.016-64.512 34.304-102.912 34.304-6.144 0-14.336 0-20.48-2.048 36.352 22.016 80.896 36.352 127.488 36.352 157.696 2.048 242.688-123.392 242.688-230.4v-10.24c16.384-12.288 30.208-26.112 40.448-42.496-14.336 6.144-30.208 10.24-48.64 12.288 18.944-10.752 31.232-27.136 37.376-45.056zM512 69.12c-246.784 0-444.928 198.144-444.928 444.928s198.144 444.928 444.928 444.928 444.928-198.144 444.928-444.928-198.144-444.928-444.928-444.928z m0 849.408c-222.72 0-404.48-182.272-404.48-404.48s182.272-404.48 404.48-404.48 404.48 182.272 404.48 404.48c0 222.72-181.76 404.48-404.48 404.48z" fill="" p-id="19535"></path></svg>