<?xml version="1.0" standalone="no"?><!DOCTYPE svg PUBLIC "-//W3C//DTD SVG 1.1//EN" "http://www.w3.org/Graphics/SVG/1.1/DTD/svg11.dtd"><svg t="1589722589251" class="icon" viewBox="0 0 1024 1024" version="1.1" xmlns="http://www.w3.org/2000/svg" p-id="27615" xmlns:xlink="http://www.w3.org/1999/xlink" width="200" height="200"><defs><style type="text/css"></style></defs><path d="M923.272 908.366c-19.913 42.862-73.069 46.18-88.903 46.18H182.347c-11.194-0.646-56.56-5.568-77.147-44.324-8.69-16.34-15.525-43.706 1.237-81.14 30.544-68.035 101.307-74.645 118.21-75.235 120.46-18.647 159.581-60.103 159.947-60.497l2.812-2.925c12.853-12.122 17.24-33.413 18.394-51.919-77.906-59.26-127.181-173.7-127.181-299.475 0-201.572 125.043-273.065 232.143-273.065 107.129 0 232.2 71.521 232.2 273.065 0 125.775-49.218 240.188-127.125 299.447 1.21 18.563 5.597 39.91 18.338 51.947l3.516 3.769c0.084 0 39.403 41.147 159.271 59.681 27.591 1.097 79.397 16.116 113.035 66.74 26.269 39.544 21.712 69.582 13.247 87.75z" p-id="27616"></path></svg>